<svg width="1387" height="1031" viewBox="0 0 1387 1031" fill="none" xmlns="http://www.w3.org/2000/svg">
<path d="M767.927 1026.58L763.766 421.392L587.313 3.70593M558.715 3.70593L736.765 434.268V1026.58M527.239 3.70593L705.289 434.268V1026.58M497.189 3.70593L675.239 434.268V1026.58M469.989 3.70593L648.039 434.268V1026.58M439.938 3.70593L617.988 434.268V1026.58" stroke="white" stroke-width="7.41" stroke-linecap="round"/>
<path d="M947.061 3.70593L763.766 421.392M915.294 3.70593L748.557 385.389M825.681 3.70593L706.245 285.232M885.193 3.70593L733.097 348.794M855.437 3.70593L720.349 318.617M795.924 3.70593L690.84 248.767" stroke="white" stroke-width="7.41" stroke-linecap="round"/>
<line x1="3.705" y1="435.715" x2="1383.29" y2="435.715" stroke="white" stroke-width="7.41" stroke-linecap="round"/>
<line x1="3.705" y1="466.981" x2="1383.29" y2="466.981" stroke="white" stroke-width="7.41" stroke-linecap="round"/>
<line x1="3.705" y1="498.247" x2="1383.29" y2="498.247" stroke="white" stroke-width="7.41" stroke-linecap="round"/>
<line x1="3.705" y1="529.514" x2="1383.29" y2="529.514" stroke="white" stroke-width="7.41" stroke-linecap="round"/>
<line x1="3.705" y1="560.781" x2="1383.29" y2="560.781" stroke="white" stroke-width="7.41" stroke-linecap="round"/>
<line x1="3.705" y1="592.047" x2="1383.29" y2="592.047" stroke="white" stroke-width="7.41" stroke-linecap="round"/>
</svg>
