<svg width="70" height="119" viewBox="0 0 70 119" fill="none" xmlns="http://www.w3.org/2000/svg">
<path d="M67.7914 1.25024L43.7407 48.8037M43.7407 48.8037L44.2868 117.704M43.7407 48.8037L20.5877 1.25024M63.6232 1.25024L41.7451 44.7048M16.8354 1.25024L39.9151 50.2696V117.704M12.7053 1.25024L36.0895 50.2696V117.704M8.76226 1.25024L32.264 50.2696V117.704M5.19328 1.25024L28.4384 50.2696V117.704M1.25024 1.25024L24.6128 50.2696V117.704M51.8647 1.25024L36.1932 33.3019M59.6735 1.25024L39.7165 40.5385M55.7691 1.25024L38.0437 37.1027M47.9603 1.25024L34.1719 29.1504" stroke="#F64444" stroke-width="2.5" stroke-linecap="round"/>
<line x1="2.50024" y1="49.6061" x2="66.5414" y2="49.6061" stroke="#F64444" stroke-width="2.5" stroke-linecap="round"/>
<line x1="2.50024" y1="53.4701" x2="66.5414" y2="53.4701" stroke="#F64444" stroke-width="2.5" stroke-linecap="round"/>
<line x1="2.50024" y1="57.3341" x2="66.5414" y2="57.3341" stroke="#F64444" stroke-width="2.5" stroke-linecap="round"/>
<line x1="2.50024" y1="61.1981" x2="66.5414" y2="61.1981" stroke="#F64444" stroke-width="2.5" stroke-linecap="round"/>
<line x1="2.50024" y1="65.0621" x2="66.5414" y2="65.0621" stroke="#F64444" stroke-width="2.5" stroke-linecap="round"/>
<line x1="2.50024" y1="68.9261" x2="66.5414" y2="68.9261" stroke="#F64444" stroke-width="2.5" stroke-linecap="round"/>
</svg>
